<?xml version="1.0" encoding="UTF-8"?>
<svg width="50px" height="50px" viewBox="0 0 34 34" version="1.1" xmlns="http://www.w3.org/2000/svg" xmlns:xlink="http://www.w3.org/1999/xlink">
    <!-- Generator: Sketch 42 (36781) - http://www.bohemiancoding.com/sketch -->
    <title>Icon - Inaccurate</title>
    <desc>Created with Sketch.</desc>
    <defs></defs>
    <g id="Page-1" stroke="none" stroke-width="1" fill="none" fill-rule="evenodd">
        <g id="Barista---Details" transform="translate(-210.000000, -601.000000)" fill="#CC0000">
            <g id="light-roast" transform="translate(0.000000, 164.000000)">
                <g id="Rate-Our-Recommendation" transform="translate(102.000000, 406.000000)">
                    <g id="Icon---Inaccurate" transform="translate(108.000000, 31.000000)">
                        <path d="M16.9395837,18.7887979 C18.7682291,20.619734 20.4835411,22.3396277 22.203073,24.0553014 C22.3869383,24.2385638 22.5782787,24.4244787 22.7962645,24.5612021 C23.2983071,24.875883 23.9308035,24.7926915 24.3506191,24.3890319 C24.7885199,23.9680106 24.8866617,23.3120035 24.5587184,22.7909113 C24.4216333,22.5732872 24.2346333,22.3829113 24.0512504,22.198805 C22.4782078,20.619734 20.900222,19.0452447 19.3250092,17.4679823 C19.1728532,17.3155851 19.030222,17.1537837 18.8651652,16.9771525 C19.0276901,16.8046206 19.1595908,16.6572872 19.2990872,16.5176702 C20.8745411,14.9406489 22.4519241,13.3656773 24.0260518,11.7876915 C24.1958106,11.6175709 24.3702716,11.4460035 24.5067539,11.2502021 C24.889917,10.700656 24.8104631,9.99979787 24.3345837,9.55333688 C23.8828177,9.12966312 23.1973922,9.08879078 22.6753355,9.47086879 C22.4983426,9.60047872 22.3436546,9.76203901 22.1875199,9.91781206 C20.6101369,11.4927837 19.0350447,13.0699255 17.4577823,14.6450177 C17.3063496,14.7962092 17.1456333,14.938117 16.9588745,15.1126986 C15.2081156,13.3583227 13.4943709,11.639273 11.7770092,9.92396099 C11.593144,9.74033688 11.404456,9.55213121 11.1882787,9.41179078 C10.6726121,9.07733688 10.0129879,9.16354255 9.58714397,9.59143617 C9.15852695,10.0219823 9.0763,10.6758191 9.41497376,11.1926915 C9.55627872,11.4083865 9.74436383,11.5968333 9.92786738,11.7809397 C11.5015128,13.3596489 13.0791369,14.9343794 14.6544702,16.5112801 C14.8048177,16.6617482 14.9480518,16.8194504 15.1678461,17.0509397 C14.9446759,17.2290177 14.7571936,17.352117 14.6014206,17.5070461 C13.1208532,18.9798972 11.6455908,20.4582943 10.1688816,21.9351241 C10.0836404,22.0202447 9.99827872,22.1052447 9.91327872,22.1906064 C9.09149149,23.0158901 8.98310142,23.7766702 9.60112979,24.3808333 C10.2039667,24.9701667 10.9517255,24.8617766 11.7500021,24.0650674 C12.9864206,22.8306986 14.2250092,21.5985 15.4545553,20.3573794 C15.9462291,19.8611241 16.4160801,19.3432872 16.9395837,18.7887979 M17.0001085,0.000180851064 C26.3744631,0.0502163121 34.0411014,7.71637234 33.9523638,17.0150106 C33.8616972,26.5348901 26.2985057,33.9769113 16.9289738,33.9380887 C7.50687447,33.8991454 -0.0142390071,26.2773582 -1.20567376e-05,16.9743794 C0.014335461,7.62811702 7.70364043,-0.0494929078 17.0001085,0.000180851064" id="Fill-1"></path>
                    </g>
                </g>
            </g>
        </g>
    </g>
</svg>
