<?xml version="1.0" encoding="UTF-8"?>
<svg width="50px" height="50px" viewBox="0 0 34 34" version="1.1" xmlns="http://www.w3.org/2000/svg" xmlns:xlink="http://www.w3.org/1999/xlink">
    <!-- Generator: Sketch 42 (36781) - http://www.bohemiancoding.com/sketch -->
    <title>Icon - Accurate</title>
    <desc>Created with Sketch.</desc>
    <defs></defs>
    <g id="Page-1" stroke="none" stroke-width="1" fill="none" fill-rule="evenodd">
        <g id="Barista---Details" transform="translate(-129.000000, -601.000000)">
            <g id="light-roast" transform="translate(0.000000, 164.000000)">
                <g id="Rate-Our-Recommendation" transform="translate(102.000000, 406.000000)">
                    <g id="Icon---Accurate" transform="translate(27.000000, 31.000000)">
                        <g id="Group-3">
                            <g id="Heart-Icon">
                                <circle id="Oval" fill="#7ED321" cx="16.9296094" cy="16.9296094" r="16.9296094"></circle>
                                <path d="M10.9232243,18.4546351 C10.5570791,17.9932777 10.2437306,17.4835303 9.95483135,16.9686557 C9.43499916,16.0423392 9.40754144,15.0607258 9.73309334,14.0620785 C10.1295777,12.8460153 10.8285206,11.8660545 11.993821,11.2833408 C13.8551405,10.352575 16.0524781,11.0849503 17.0273118,12.9424987 C17.059939,13.0047022 17.0920578,13.0672448 17.1348545,13.1497875 C17.1691343,13.103389 17.2012954,13.071016 17.2205328,13.0322447 C18.5397319,10.3735073 21.9785142,10.1988881 23.7158927,12.4441496 C24.3642422,13.2819913 24.7305994,14.2292401 24.7699215,15.2926757 C24.7984809,16.0642036 24.4984376,16.7398838 24.1178008,17.3836147 C23.4654682,18.4867962 22.6066942,19.4228162 21.6927082,20.3089631 C20.3167716,21.6431623 18.8262159,22.8395645 17.2621854,23.9455426 C17.227948,23.96978 17.1928632,23.9927462 17.1363799,24.0310938 C14.8685336,22.3774867 12.674035,20.6609134 10.9232243,18.4546351 Z" id="Fill-1" fill="#FFFFFF"></path>
                            </g>
                        </g>
                    </g>
                </g>
            </g>
        </g>
    </g>
</svg>
