<?xml version="1.0" encoding="utf-8"?>
<!-- Generator: Adobe Illustrator 17.1.0, SVG Export Plug-In . SVG Version: 6.00 Build 0)  -->
<!DOCTYPE svg PUBLIC "-//W3C//DTD SVG 1.1//EN" "http://www.w3.org/Graphics/SVG/1.1/DTD/svg11.dtd">
<svg version="1.1" id="O3_Labs_Bot_-_Barista" xmlns="http://www.w3.org/2000/svg" xmlns:xlink="http://www.w3.org/1999/xlink"
	 x="0px" y="0px" viewBox="0 0 600 600" enable-background="new 0 0 600 600" xml:space="preserve">
<g>
	<g>
		<g>
			<circle fill="#4A4A4A" cx="278.5" cy="417.1" r="27.4"/>
			<polygon fill="#4A4A4A" points="273.8,468.7 265.2,467.1 265.6,438.2 283,441.3 			"/>
			<path fill="#4A4A4A" d="M234.8,536.1c0,0-3.8-23.9,14-63H289c17.7,39.1,14,63,14,63H234.8z"/>
			<circle fill="#4A4A4A" cx="268.8" cy="475.1" r="14.4"/>
			<path fill="#4A4A4A" d="M299.8,525c-9.6-3.6-20.9-5.7-33.1-5.7c-21.7,0-40.9,6.7-52.1,16.8h85.2V525z"/>
		</g>
		<g>
			<circle fill="#4A4A4A" cx="357" cy="417.1" r="27.4"/>
			<polygon fill="#4A4A4A" points="361.7,468.7 370.3,467.1 369.9,438.2 352.5,441.3 			"/>
			<path fill="#4A4A4A" d="M400.8,536.1c0,0,3.8-23.9-14-63h-40.2c-17.7,39.1-14,63-14,63H400.8z"/>
			<circle fill="#4A4A4A" cx="366.7" cy="475.1" r="14.4"/>
			<path fill="#4A4A4A" d="M335.7,525c9.6-3.6,20.9-5.7,33.1-5.7c21.7,0,40.9,6.7,52.1,16.8h-85.2V525z"/>
		</g>
	</g>
	<path fill="#4A4A4A" d="M0.1,203.9c0-3.3,2.7-6,6-6h117.7c3.3,0,6,2.7,6,6v1.1c0,3.3-2.7,6-6,6H95.7v0.7c0,1.6-1.3,2.9-2.9,2.9H37
		c-1.6,0-2.9-1.3-2.9-2.9L6,211.1c-3.3,0-6-2.7-6-6L0.1,203.9L0.1,203.9z M99.8,150.1v20.4c0.9,0.2,1.7,0.3,2.7,0.3
		c5.8,0,10.5-4.7,10.5-10.5c0-5.8-4.7-10.5-10.5-10.5C101.6,149.8,100.7,149.8,99.8,150.1z M26.2,135.9h73.7v7.1
		c0.9-0.2,1.7-0.2,2.7-0.2c9.7,0,17.5,7.8,17.5,17.5c0,9.7-7.8,17.5-17.5,17.5c-1,0-1.9-0.1-2.8-0.2c-0.8,5.9-5.9,10.5-12,10.5H38.2
		c-6.7,0-12.1-5.4-12.1-12.1L26.2,135.9L26.2,135.9z"/>
	<path fill="#4A4A4A" d="M313.9,140.8v-12.9h-25.8c0-15.9,12.3-28.9,27.8-30.1V81.2c-3.7-1.1-6.4-4.5-6.4-8.5c0-4.8,3.9-8.8,8.8-8.8
		c4.8,0,8.8,3.9,8.8,8.8c0,4-2.7,7.4-6.4,8.4v16.5c15.6,1.2,27.8,14.2,27.8,30.1h-25.8v12.9L313.9,140.8z"/>
	<path fill="#4A4A4A" d="M262.4,291c3.9,27.2,27.4,48.2,55.6,48.2c28.3,0,51.7-21,55.6-48.2H262.4z"/>
	<path fill-rule="evenodd" clip-rule="evenodd" fill="#4A4A4A" d="M311.4,243.2L311.4,243.2c-0.1,0.1-0.1,0.1-0.1,0.2l0,0.1
		l-0.1,0.1l0,0.1c0,0.1,0,0.1-0.1,0.1l0,0.1v0l-0.1,0.1v0l0,0.1l0,0.1l0,0.1l0,0.1l0,0.1l0,0.1l0,0.1l0,0.1v0.1c0,0.1,0,0.1,0,0.1v0
		c0,0.1,0,0.1,0,0.2v0c0,0.1,0,0.1,0,0.1v0c0,0.1,0,0.1,0,0.2v0c0,0.1,0,0.1,0,0.2c0,0.1,0,0.1,0,0.2v0c0,0.1,0,0.1,0,0.2
		c0,0.1,0,0.1,0,0.2c0,0.1,0,0.1,0,0.2c0,0.1,0,0.1,0,0.2c0,4.3,3.5,7.8,7.8,7.8s7.8-3.5,7.8-7.8c0-0.1,0-0.1,0-0.2
		c0-0.1,0-0.1,0-0.2c0-0.1,0-0.1,0-0.2c0-0.1,0-0.1,0-0.2v0c0-0.1,0-0.1,0-0.2c0-0.1,0-0.1,0-0.2v0c0-0.1,0-0.1,0-0.2v0
		c0-0.1,0-0.1,0-0.1v0c0-0.1,0-0.1,0-0.2v0c0-0.1,0-0.1,0-0.1v-0.1l0-0.1l0-0.1l0-0.1l0-0.1l0-0.1l0-0.1l0-0.1l0-0.1v0l0-0.1v0
		l0-0.1c0-0.1,0-0.1-0.1-0.1l0-0.1l-0.1-0.1l0-0.1c0-0.1,0-0.1-0.1-0.1l0-0.1l-7-14.9V228l-0.1,0.2l-0.1-0.2v0.3L311.4,243.2
		L311.4,243.2z"/>
	<path fill="#4A4A4A" d="M246.9,372.5c0.9-0.7,1.5-1.8,1-2.8s-1.6-1.2-2.8-1c0,0-9.8,2.5-10.3,2.7c-2.1,1-2.9,3.5-1.9,5.6
		c1,2.1,3.5,2.9,5.6,1.9C238.9,378.8,246.9,372.5,246.9,372.5z"/>
	<path fill="#4A4A4A" d="M173.4,137.9v290.1h290.1V137.9H173.4z M318.1,163.3c33.1,0,63,13.5,84.7,35.2L382.3,219
		c-16.4-16.5-39.1-26.7-64.2-26.7c-24.9,0-47.5,10.1-63.9,26.4l-20.5-20.5C255.4,176.6,285.2,163.3,318.1,163.3z M274.2,389h-74.4
		c0,0,0-0.3,0-0.4c0-20.5,16.6-37.2,37.2-37.2s37.2,16.7,37.2,37.3C274.2,388.7,274.2,389,274.2,389z M318.1,352.6
		c-38.4,0-69.7-31.3-69.7-69.7s31.3-69.7,69.7-69.7s69.7,31.3,69.7,69.7S356.5,352.6,318.1,352.6z M408.1,389c-8.3,0-16-4-16.2-14.8
		h9.3c0.1,4,3.3,6.4,6.9,6.4c4,0,6.8-2.7,6.8-7.3c0-4.2-2.6-7.2-7.1-7.2h-0.8v-8.1h0.8c4.5,0,6.4-2.7,6.4-6.2c0-4.3-2.9-6.6-6.2-6.6
		c-3.5,0-6.1,2-6.3,6.1h-9.3c0.2-9.4,7-14.3,15.5-14.3c9,0,15.5,6.1,15.5,14.6c0,5.5-2.5,8.7-5.8,10.4c3.6,1.9,6.6,5.5,6.6,11.7
		C424.3,383.9,416.8,389,408.1,389z"/>
	<path fill="#4A4A4A" d="M355.7,176.4l-6.2,14.3c11.9,4.1,23,10.4,32.7,18.9l11-11C382.1,188.8,369.4,181.3,355.7,176.4z"/>
	<path opacity="0.5" fill="#4A4A4A" d="M281.1,176.2c-13.8,4.8-26.6,12.2-37.7,22.1l11,11c9.8-8.5,20.9-14.8,32.9-18.8L281.1,176.2z
		"/>
	<path opacity="0.5" fill="#4A4A4A" d="M346.6,173.7c-9.2-2.4-18.8-3.7-28.6-3.7c-9.5,0-18.9,1.2-27.9,3.5l6.3,14.5
		c7-1.6,14.3-2.4,21.6-2.4c7.6,0,15,0.9,22.3,2.6L346.6,173.7z"/>
	<g>
		<g>
			<circle fill="#4A4A4A" cx="462.5" cy="282" r="27.4"/>
			<polygon fill="#4A4A4A" points="526.3,338.2 531.7,331.4 486.1,289.2 475.1,303.1 			"/>
		</g>
		<g>
			<circle fill="#4A4A4A" cx="527.1" cy="334.6" r="11.7"/>
			<circle fill="#4A4A4A" cx="524.1" cy="467.1" r="5.5"/>
			<circle fill="#4A4A4A" cx="570.8" cy="464.2" r="5.5"/>
			<polygon fill="#4A4A4A" points="507.6,452.5 537.3,427.2 520.8,412.7 499.4,445.2 			"/>

				<rect x="508.3" y="444.2" transform="matrix(0.6621 -0.7494 0.7494 0.6621 -169.5808 539.8093)" fill="#4A4A4A" width="11" height="27.5"/>

				<rect x="566.1" y="448.4" transform="matrix(0.6621 -0.7494 0.7494 0.6621 -144.1928 587.9393)" fill="#4A4A4A" width="27.5" height="11"/>
			<polygon fill="#4A4A4A" points="592.6,439.4 585.3,447.7 552.8,426.3 567.4,409.8 			"/>
			<circle fill="#4A4A4A" cx="503.5" cy="448.8" r="11"/>
			<circle fill="#4A4A4A" cx="589" cy="443.5" r="11"/>
			<path fill="#4A4A4A" d="M570.6,398.1L570.6,398.1c-2.7-11.5-9.9-34.8-27.2-64.9l-31.3,7.5c-1.6,31.8,1.7,54.6,4.4,67
				c0.2,1,0.4,1.6,0.7,2.6c0,0,0-0.4,0-0.4h0c1.4,6,4.1,10,8.3,13.6c11.4,10.1,28.8,9.2,38.9-2.2
				C570.1,414.8,572.2,406.2,570.6,398.1z M553.9,412.6c-5,5.7-13.7,6.2-19.4,1.2c-5.7-5-6.2-13.7-1.2-19.4c5-5.7,13.7-6.2,19.4-1.2
				C558.4,398.2,558.9,406.9,553.9,412.6z"/>
			<circle fill="#4A4A4A" cx="543.6" cy="403.4" r="4.8"/>
		</g>
	</g>
	<g>
		<circle fill="#4A4A4A" cx="173.2" cy="282" r="27.4"/>
		<polygon fill="#4A4A4A" points="120.7,348.9 114.1,343.2 151.2,293.4 164.5,305 		"/>
	</g>
	<circle fill="#4A4A4A" cx="112.2" cy="345.5" r="11.7"/>
	<circle fill="#4A4A4A" cx="39.3" cy="231" r="5.5"/>
	<circle fill="#4A4A4A" cx="91.6" cy="230.3" r="5.5"/>
	<polygon fill="#4A4A4A" points="24.7,247.5 57.3,268.9 42.7,285.4 17.4,255.8 	"/>

		<rect x="24.7" y="227.6" transform="matrix(0.7494 0.6621 -0.6621 0.7494 167.364 40.4871)" fill="#4A4A4A" width="11" height="27.5"/>
	
		<rect x="87.3" y="234.8" transform="matrix(0.6841 0.7293 -0.7293 0.6841 207.1941 2.2206)" fill="#4A4A4A" width="27.5" height="11"/>
	<polygon fill="#4A4A4A" points="114.2,254.4 106.7,246.4 74.8,268.7 89.9,284.8 	"/>
	<circle fill="#4A4A4A" cx="21.1" cy="251.6" r="11"/>
	<circle fill="#4A4A4A" cx="110.5" cy="250.4" r="11"/>
	<path fill="#4A4A4A" d="M86.9,272.9l-0.2,0.2c-0.6-0.7-1.3-1.3-2-1.9c-11.4-10.1-28.8-9-38.9,2.4c-10.1,11.4-9,28.8,2.4,38.9
		c0.2,0.2,0.4,0.3,0.6,0.5c8.9,9.7,24.8,24.9,49.5,41.2l24.6-20.8C109,301.5,94.5,281.9,86.9,272.9z M75.7,301.8
		c-5.5,5.2-14.3,4.9-19.5-0.6c-5.2-5.5-4.9-14.3,0.6-19.5c5.5-5.2,14.3-4.9,19.5,0.6C81.6,287.9,81.3,296.6,75.7,301.8z"/>
	<circle fill="#4A4A4A" cx="66.3" cy="291.8" r="4.8"/>
</g>
</svg>
