<svg xmlns="http://www.w3.org/2000/svg" viewBox="0 0 500 500"><style>.st0{display:none;} .st1{display:inline;fill:url(#logo_01_4_);} .st2{fill:#CC0000;} .st3{display:inline;} .st4{display:inline;fill:#FFFFFF;}</style><g id="O3_Logo_-_Gradient" class="st0"><linearGradient id="logo_01_4_" gradientUnits="userSpaceOnUse" x1="250" y1="492.855" x2="250" y2="12.953"><stop offset="0" stop-color="#C00"/><stop offset="1" stop-color="#900"/></linearGradient><path id="logo_01_11_" class="st1" d="M500 500H0V0h500v500zM370.3 250c0-66.3-54-120.2-120.3-120.2S129.7 183.7 129.7 250s54 120.3 120.3 120.3 120.3-54 120.3-120.3zm-48.4 0c0 39.6-32.2 71.9-71.9 71.9-39.6 0-71.9-32.2-71.9-71.9 0-39.6 32.2-71.8 71.9-71.8 39.6 0 71.9 32.2 71.9 71.8zm111.3 156.6c0-10.6-5-16.6-11.3-19.9 5.8-3.1 10.1-8.5 10.1-18 0-14.8-11.2-25.1-26.7-25.1-14.8 0-26.5 9.3-26.8 25h16c.4-6.6 4.8-10.6 10.8-10.6 5.8 0 10.7 3.8 10.7 11.2 0 6.2-3.3 10.9-11.1 10.9h-2.3V394h2.3c7.9 0 12.3 4.8 12.3 12 0 7.9-4.9 12.2-11.8 12.2-6.3 0-11.7-3.6-11.9-11.4h-16c.2 18.3 13.7 25.8 27.9 25.8 15 .1 27.8-8.5 27.8-26z"/></g><g id="O3_Logo_-_Solid_Red"><path id="logo_01_1_" class="st2" d="M500 500H0V0h500v500zM370.3 250c0-66.3-54-120.2-120.3-120.2S129.7 183.7 129.7 250s54 120.3 120.3 120.3 120.3-54 120.3-120.3zm-48.4 0c0 39.6-32.2 71.9-71.9 71.9-39.6 0-71.9-32.2-71.9-71.9 0-39.6 32.2-71.8 71.9-71.8 39.6 0 71.9 32.2 71.9 71.8zm111.3 156.6c0-10.6-5-16.6-11.3-19.9 5.8-3.1 10.1-8.5 10.1-18 0-14.8-11.2-25.1-26.7-25.1-14.8 0-26.5 9.3-26.8 25h16c.4-6.6 4.8-10.6 10.8-10.6 5.8 0 10.7 3.8 10.7 11.2 0 6.2-3.3 10.9-11.1 10.9h-2.3V394h2.3c7.9 0 12.3 4.8 12.3 12 0 7.9-4.9 12.2-11.8 12.2-6.3 0-11.7-3.6-11.9-11.4h-16c.2 18.3 13.7 25.8 27.9 25.8 15 .1 27.8-8.5 27.8-26z"/></g><g id="O3_Logo_-_Solid_Black" class="st0"><path id="logo_01_2_" class="st3" d="M500 500H0V0h500v500zM370.3 250c0-66.3-54-120.2-120.3-120.2S129.7 183.7 129.7 250s54 120.3 120.3 120.3 120.3-54 120.3-120.3zm-48.4 0c0 39.6-32.2 71.9-71.9 71.9-39.6 0-71.9-32.2-71.9-71.9 0-39.6 32.2-71.8 71.9-71.8 39.6 0 71.9 32.2 71.9 71.8zm111.3 156.6c0-10.6-5-16.6-11.3-19.9 5.8-3.1 10.1-8.5 10.1-18 0-14.8-11.2-25.1-26.7-25.1-14.8 0-26.5 9.3-26.8 25h16c.4-6.6 4.8-10.6 10.8-10.6 5.8 0 10.7 3.8 10.7 11.2 0 6.2-3.3 10.9-11.1 10.9h-2.3V394h2.3c7.9 0 12.3 4.8 12.3 12 0 7.9-4.9 12.2-11.8 12.2-6.3 0-11.7-3.6-11.9-11.4h-16c.2 18.3 13.7 25.8 27.9 25.8 15 .1 27.8-8.5 27.8-26z"/></g><g id="O3_Logo_-_Solid_White" class="st0"><path id="logo_01_3_" class="st4" d="M500 500H0V0h500v500zM370.3 250c0-66.3-54-120.2-120.3-120.2S129.7 183.7 129.7 250s54 120.3 120.3 120.3 120.3-54 120.3-120.3zm-48.4 0c0 39.6-32.2 71.9-71.9 71.9-39.6 0-71.9-32.2-71.9-71.9 0-39.6 32.2-71.8 71.9-71.8 39.6 0 71.9 32.2 71.9 71.8zm111.3 156.6c0-10.6-5-16.6-11.3-19.9 5.8-3.1 10.1-8.5 10.1-18 0-14.8-11.2-25.1-26.7-25.1-14.8 0-26.5 9.3-26.8 25h16c.4-6.6 4.8-10.6 10.8-10.6 5.8 0 10.7 3.8 10.7 11.2 0 6.2-3.3 10.9-11.1 10.9h-2.3V394h2.3c7.9 0 12.3 4.8 12.3 12 0 7.9-4.9 12.2-11.8 12.2-6.3 0-11.7-3.6-11.9-11.4h-16c.2 18.3 13.7 25.8 27.9 25.8 15 .1 27.8-8.5 27.8-26z"/></g></svg>
