<?xml version="1.0" encoding="utf-8"?>
<!-- Generator: Adobe Illustrator 18.1.1, SVG Export Plug-In . SVG Version: 6.00 Build 0)  -->
<svg version="1.1" xmlns="http://www.w3.org/2000/svg" xmlns:xlink="http://www.w3.org/1999/xlink" x="0px" y="0px"
   viewBox="0 0 420.4 336.3" enable-background="new 0 0 420.4 336.3" xml:space="preserve">
<g id="BG" display="none">
  <rect x="-88.8" y="-130.7" display="inline" fill="#CC0000" stroke="#FFFFFF" stroke-miterlimit="10" width="599" height="599"/>
</g>
<g id="O3_Labs_Bot">
  <path fill="#FFFFFF" d="M102.7,39.8v216h216v-216H102.7z M237.1,66.1c1.9,0,3.4,1.5,3.4,3.4c0,1.9-1.5,3.4-3.4,3.4
    c-1.9,0-3.4-1.5-3.4-3.4C233.7,67.6,235.2,66.1,237.1,66.1z M220.7,62.7c0-1.9,1.1-3.4,3-3.4s3,1.5,3,3.4v13.4c0,1.9-1.1,3.4-3,3.4
    s-3-1.5-3-3.4V62.7z M206.7,56c0-1.9,1.6-3.4,3.5-3.4c1.9,0,3.5,1.5,3.5,3.4v26.9c0,1.9-1.6,3.4-3.5,3.4c-1.9,0-3.5-1.5-3.5-3.4V56
    z M193.7,62.7c0-1.9,1.1-3.4,3-3.4c1.9,0,3,1.5,3,3.4v13.4c0,1.9-1.1,3.4-3,3.4c-1.9,0-3-1.5-3-3.4V62.7z M183.3,66.1
    c1.9,0,3.4,1.5,3.4,3.4c0,1.9-1.5,3.4-3.4,3.4s-3.4-1.5-3.4-3.4C179.9,67.6,181.4,66.1,183.3,66.1z M177.7,226.8h-55.4
    c0,0,0-0.2,0-0.3c0-15.3,12.4-27.7,27.7-27.7s27.7,12.5,27.7,27.7C177.8,226.6,177.7,226.8,177.7,226.8z M210.4,199.7
    c-28.6,0-51.9-23.3-51.9-51.9s23.3-51.9,51.9-51.9s51.9,23.3,51.9,51.9S239,199.7,210.4,199.7z M277.5,226.8c-6.2,0-11.9-3-12.1-11
    h6.9c0.1,3,2.4,4.8,5.1,4.8c3,0,5.1-2,5.1-5.4c0-3.1-1.9-5.4-5.3-5.4h-0.6v-6h0.6c3.3,0,4.8-2,4.8-4.6c0-3.2-2.1-4.9-4.6-4.9
    c-2.6,0-4.5,1.5-4.7,4.5h-6.9c0.2-7,5.2-10.7,11.6-10.7c6.7,0,11.5,4.5,11.5,10.9c0,4.1-1.9,6.4-4.4,7.8c2.7,1.4,4.9,4.1,4.9,8.7
    C289.5,223,284,226.8,277.5,226.8z"/>
  <path fill="#FFFFFF" d="M149.3,208.6c-0.4-0.7-1.1-1.3-2-1s-1.1,1.1-1,2c0,0,0.8,7.5,0.9,7.9c0.5,1.6,2.3,2.5,3.9,2
    c1.6-0.5,2.5-2.3,2-3.9C153,215.2,149.3,208.6,149.3,208.6z"/>
  <path fill="#FFFFFF" d="M210.4,116.7c-17.1,0-31,13.9-31,31c0,17.1,13.9,31,31,31c17.1,0,31-13.9,31-31
    C241.4,130.7,227.5,116.7,210.4,116.7z M210.2,157c-5.1,0-9.3-4.2-9.3-9.3s4.2-9.3,9.3-9.3s9.3,4.2,9.3,9.3S215.3,157,210.2,157z
     M224,137.8c-2,0-3.6-1.6-3.6-3.6c0-2,1.6-3.6,3.6-3.6s3.6,1.6,3.6,3.6C227.6,136.2,226,137.8,224,137.8z"/>
  <g>
    <path fill="#FFFFFF" d="M217.1,19.1L217.1,19.1c-0.4,0-0.7-0.2-0.8-0.6l-6.1-15.2l-6.1,15.2c-0.1,0.3-0.5,0.6-0.8,0.6l0,0
      c-0.4,0-0.7-0.2-0.8-0.6l-6.1-15.2l-2.6,6.6c-0.2,0.5-0.7,0.7-1.2,0.5c-0.5-0.2-0.7-0.7-0.5-1.2l3.5-8.6c0.1-0.3,0.5-0.6,0.8-0.6
      c0.4,0,0.7,0.2,0.8,0.6l6.1,15.2l6.1-15.2c0.1-0.3,0.5-0.6,0.8-0.6l0,0c0.4,0,0.7,0.2,0.8,0.6l6.1,15.2l6.1-15.2
      c0.1-0.3,0.5-0.6,0.8-0.6l0,0c0.4,0,0.7,0.2,0.8,0.6l3.5,8.6c0.2,0.5,0,1-0.5,1.2c-0.5,0.2-1,0-1.2-0.5L224,3.3l-6.1,15.2
      C217.8,18.9,217.5,19.1,217.1,19.1z"/>
    <g>
      <g>
        <polygon fill="#FFFFFF" points="232.2,43.3 224,40.3 235.7,14.7 239.7,16.1 				"/>
        <circle fill="#FFFFFF" cx="239.8" cy="10.8" r="6.5"/>
      </g>
      <g>
        <polygon fill="#FFFFFF" points="188.2,43.3 196.3,40.3 184.7,14.7 180.6,16.1 				"/>
        <circle fill="#FFFFFF" cx="180.5" cy="10.8" r="6.5"/>
      </g>
    </g>
  </g>
  <g>
    <g>
      <circle fill="#FFFFFF" cx="181" cy="247.7" r="20.4"/>
      <polygon fill="#FFFFFF" points="177.4,286.1 171.1,285 171.4,263.4 184.3,265.7 			"/>
      <path fill="#FFFFFF" d="M148.4,336.3c0,0-2.8-17.8,10.4-46.9h30c13.2,29.1,10.4,46.9,10.4,46.9H148.4z"/>
      <circle fill="#FFFFFF" cx="173.8" cy="290.9" r="10.7"/>
      <path fill="#FFFFFF" d="M196.8,328c-7.1-2.7-15.6-4.3-24.7-4.3c-16.2,0-30.4,5-38.8,12.5h63.4V328z"/>
    </g>
    <g>
      <circle fill="#FFFFFF" cx="239.4" cy="247.7" r="20.4"/>
      <polygon fill="#FFFFFF" points="242.9,286.1 249.3,285 249,263.4 236.1,265.7 			"/>
      <path fill="#FFFFFF" d="M272,336.3c0,0,2.8-17.8-10.4-46.9h-30c-13.2,29.1-10.4,46.9-10.4,46.9H272z"/>
      <circle fill="#FFFFFF" cx="246.6" cy="290.9" r="10.7"/>
      <path fill="#FFFFFF" d="M223.5,328c7.1-2.7,15.6-4.3,24.7-4.3c16.2,0,30.4,5,38.8,12.5h-63.4V328z"/>
    </g>
  </g>
  <g>
    <g>
      <circle fill="#FFFFFF" cx="102.4" cy="147.1" r="20.4"/>
      <polygon fill="#FFFFFF" points="54.9,188.9 50.9,183.8 84.8,152.5 93,162.8 			"/>
    </g>
    <g>
      <circle fill="#FFFFFF" cx="54.3" cy="186.3" r="8.7"/>
      <circle fill="#FFFFFF" cx="56.5" cy="284.9" r="4.1"/>
      <circle fill="#FFFFFF" cx="21.8" cy="282.8" r="4.1"/>
      <polygon fill="#FFFFFF" points="68.8,274 46.7,255.2 59,244.4 74.9,268.6 			"/>

        <rect x="60.1" y="267.9" transform="matrix(-0.6621 -0.7494 0.7494 -0.6621 -101.7399 510.3493)" fill="#FFFFFF" width="8.2" height="20.5"/>

        <rect x="4.7" y="271" transform="matrix(-0.6621 -0.7494 0.7494 -0.6621 -181.2305 468.4189)" fill="#FFFFFF" width="20.5" height="8.2"/>
      <polygon fill="#FFFFFF" points="5.5,264.3 10.9,270.5 35.1,254.5 24.3,242.2 			"/>
      <circle fill="#FFFFFF" cx="71.9" cy="271.3" r="8.2"/>
      <circle fill="#FFFFFF" cx="8.2" cy="267.4" r="8.2"/>
      <path fill="#FFFFFF" d="M65.5,190.8l-23.3-5.6c-12.9,22.4-18.3,39.8-20.3,48.3l0.1,0c-1.2,6.1,0.3,12.6,4.7,17.6
        c7.5,8.5,20.5,9.1,28.9,1.6c3.1-2.7,5.1-6,6.2-10h0c0,0,0,0.1,0,0.1c0.2-0.8,0.4-1.4,0.5-2.2C64.2,231.4,66.7,214.5,65.5,190.8z
         M48.8,245.2c-4.2,3.7-10.7,3.3-14.5-0.9c-3.7-4.2-3.3-10.7,0.9-14.5c4.2-3.7,10.7-3.3,14.5,0.9C53.4,235,53,241.5,48.8,245.2z"
        />
      <circle fill="#FFFFFF" cx="42" cy="237.5" r="3.6"/>
    </g>
  </g>
  <g>
    <g>
      <circle fill="#FFFFFF" cx="317.9" cy="147.1" r="20.4"/>
      <polygon fill="#FFFFFF" points="365.5,188.9 369.5,183.8 335.5,152.5 327.4,162.8 			"/>
    </g>
    <g>
      <circle fill="#FFFFFF" cx="366.1" cy="186.3" r="8.7"/>
      <circle fill="#FFFFFF" cx="363.9" cy="284.9" r="4.1"/>
      <circle fill="#FFFFFF" cx="398.6" cy="282.8" r="4.1"/>
      <polygon fill="#FFFFFF" points="351.6,274 373.6,255.2 361.3,244.4 345.4,268.6 			"/>

        <rect x="352.1" y="267.9" transform="matrix(0.6621 -0.7494 0.7494 0.6621 -88.0685 360.9041)" fill="#FFFFFF" width="8.2" height="20.5"/>

        <rect x="395.1" y="271" transform="matrix(0.6621 -0.7494 0.7494 0.6621 -69.1623 396.746)" fill="#FFFFFF" width="20.5" height="8.2"/>
      <polygon fill="#FFFFFF" points="414.9,264.3 409.4,270.5 385.2,254.5 396.1,242.2 			"/>
      <circle fill="#FFFFFF" cx="348.5" cy="271.3" r="8.2"/>
      <circle fill="#FFFFFF" cx="412.2" cy="267.4" r="8.2"/>
      <path fill="#FFFFFF" d="M398.4,233.5L398.4,233.5c-2-8.6-7.4-25.9-20.3-48.3l-23.3,5.6c-1.2,23.7,1.3,40.7,3.2,49.9
        c0.1,0.8,0.3,1.4,0.5,2.1c0,0,0-0.1,0-0.1h0c1,4,3.1,7.3,6.2,10c8.5,7.5,21.4,6.8,28.9-1.7C398.1,246,399.6,239.6,398.4,233.5z
         M386,244.3c-3.7,4.2-10.2,4.6-14.5,0.9c-4.2-3.7-4.6-10.2-0.9-14.5c3.7-4.2,10.2-4.6,14.5-0.9
        C389.4,233.6,389.8,240.1,386,244.3z"/>
      <circle fill="#FFFFFF" cx="378.4" cy="237.5" r="3.6"/>
    </g>
  </g>
</g>
<g id="O3_Labs_Bot_-_Theme_Music" display="none">
  <path display="inline" fill="#5D5D5D" d="M102.7,39.8v216h216v-216H102.7z M237.1,66.1c1.9,0,3.4,1.5,3.4,3.4
    c0,1.9-1.5,3.4-3.4,3.4c-1.9,0-3.4-1.5-3.4-3.4C233.7,67.6,235.2,66.1,237.1,66.1z M220.7,62.7c0-1.9,1.1-3.4,3-3.4s3,1.5,3,3.4
    v13.4c0,1.9-1.1,3.4-3,3.4s-3-1.5-3-3.4V62.7z M206.7,56c0-1.9,1.6-3.4,3.5-3.4c1.9,0,3.5,1.5,3.5,3.4v26.9c0,1.9-1.6,3.4-3.5,3.4
    c-1.9,0-3.5-1.5-3.5-3.4V56z M193.7,62.7c0-1.9,1.1-3.4,3-3.4c1.9,0,3,1.5,3,3.4v13.4c0,1.9-1.1,3.4-3,3.4c-1.9,0-3-1.5-3-3.4V62.7
    z M183.3,66.1c1.9,0,3.4,1.5,3.4,3.4c0,1.9-1.5,3.4-3.4,3.4s-3.4-1.5-3.4-3.4C179.9,67.6,181.4,66.1,183.3,66.1z M177.7,226.8
    h-55.4c0,0,0-0.2,0-0.3c0-15.3,12.4-27.7,27.7-27.7s27.7,12.5,27.7,27.7C177.8,226.6,177.7,226.8,177.7,226.8z M210.4,199.7
    c-28.6,0-51.9-23.3-51.9-51.9s23.3-51.9,51.9-51.9s51.9,23.3,51.9,51.9S239,199.7,210.4,199.7z M277.5,226.8c-6.2,0-11.9-3-12.1-11
    h6.9c0.1,3,2.4,4.8,5.1,4.8c3,0,5.1-2,5.1-5.4c0-3.1-1.9-5.4-5.3-5.4h-0.6v-6h0.6c3.3,0,4.8-2,4.8-4.6c0-3.2-2.1-4.9-4.6-4.9
    c-2.6,0-4.5,1.5-4.7,4.5h-6.9c0.2-7,5.2-10.7,11.6-10.7c6.7,0,11.5,4.5,11.5,10.9c0,4.1-1.9,6.4-4.4,7.8c2.7,1.4,4.9,4.1,4.9,8.7
    C289.5,223,284,226.8,277.5,226.8z"/>
  <path display="inline" fill="#5D5D5D" d="M149.3,208.6c-0.4-0.7-1.1-1.3-2-1s-1.1,1.1-1,2c0,0,0.8,7.5,0.9,7.9
    c0.5,1.6,2.3,2.5,3.9,2c1.6-0.5,2.5-2.3,2-3.9C153,215.2,149.3,208.6,149.3,208.6z"/>
  <path display="inline" fill="#5D5D5D" d="M210.4,116.7c-17.1,0-31,13.9-31,31c0,17.1,13.9,31,31,31c17.1,0,31-13.9,31-31
    C241.4,130.7,227.5,116.7,210.4,116.7z M210.2,157c-5.1,0-9.3-4.2-9.3-9.3s4.2-9.3,9.3-9.3s9.3,4.2,9.3,9.3S215.3,157,210.2,157z
     M224,137.8c-2,0-3.6-1.6-3.6-3.6c0-2,1.6-3.6,3.6-3.6s3.6,1.6,3.6,3.6C227.6,136.2,226,137.8,224,137.8z"/>
  <g display="inline">
    <path fill="#5D5D5D" d="M217.1,19.1L217.1,19.1c-0.4,0-0.7-0.2-0.8-0.6l-6.1-15.2l-6.1,15.2c-0.1,0.3-0.5,0.6-0.8,0.6l0,0
      c-0.4,0-0.7-0.2-0.8-0.6l-6.1-15.2l-2.6,6.6c-0.2,0.5-0.7,0.7-1.2,0.5c-0.5-0.2-0.7-0.7-0.5-1.2l3.5-8.6c0.1-0.3,0.5-0.6,0.8-0.6
      c0.4,0,0.7,0.2,0.8,0.6l6.1,15.2l6.1-15.2c0.1-0.3,0.5-0.6,0.8-0.6l0,0c0.4,0,0.7,0.2,0.8,0.6l6.1,15.2l6.1-15.2
      c0.1-0.3,0.5-0.6,0.8-0.6l0,0c0.4,0,0.7,0.2,0.8,0.6l3.5,8.6c0.2,0.5,0,1-0.5,1.2c-0.5,0.2-1,0-1.2-0.5L224,3.3l-6.1,15.2
      C217.8,18.9,217.5,19.1,217.1,19.1z"/>
    <g>
      <g>
        <polygon fill="#5D5D5D" points="232.2,43.3 224,40.3 235.7,14.7 239.7,16.1 				"/>
        <circle fill="#5D5D5D" cx="239.8" cy="10.8" r="6.5"/>
      </g>
      <g>
        <polygon fill="#5D5D5D" points="188.2,43.3 196.3,40.3 184.7,14.7 180.6,16.1 				"/>
        <circle fill="#5D5D5D" cx="180.5" cy="10.8" r="6.5"/>
      </g>
    </g>
  </g>
  <g display="inline">
    <g>
      <circle fill="#5D5D5D" cx="181" cy="247.7" r="20.4"/>
      <polygon fill="#5D5D5D" points="177.4,286.1 171.1,285 171.4,263.4 184.3,265.7 			"/>
      <path fill="#5D5D5D" d="M148.4,336.3c0,0-2.8-17.8,10.4-46.9h30c13.2,29.1,10.4,46.9,10.4,46.9H148.4z"/>
      <circle fill="#5D5D5D" cx="173.8" cy="290.9" r="10.7"/>
      <path fill="#5D5D5D" d="M196.8,328c-7.1-2.7-15.6-4.3-24.7-4.3c-16.2,0-30.4,5-38.8,12.5h63.4V328z"/>
    </g>
    <g>
      <circle fill="#5D5D5D" cx="239.4" cy="247.7" r="20.4"/>
      <polygon fill="#5D5D5D" points="242.9,286.1 249.3,285 249,263.4 236.1,265.7 			"/>
      <path fill="#5D5D5D" d="M272,336.3c0,0,2.8-17.8-10.4-46.9h-30c-13.2,29.1-10.4,46.9-10.4,46.9H272z"/>
      <circle fill="#5D5D5D" cx="246.6" cy="290.9" r="10.7"/>
      <path fill="#5D5D5D" d="M223.5,328c7.1-2.7,15.6-4.3,24.7-4.3c16.2,0,30.4,5,38.8,12.5h-63.4V328z"/>
    </g>
  </g>
  <g display="inline">
    <g>
      <circle fill="#5D5D5D" cx="317.9" cy="147.1" r="20.4"/>
      <polygon fill="#5D5D5D" points="365.5,188.9 369.5,183.8 335.5,152.5 327.4,162.8 			"/>
    </g>
    <g>
      <circle fill="#5D5D5D" cx="366.1" cy="186.3" r="8.7"/>
      <circle fill="#5D5D5D" cx="363.9" cy="284.9" r="4.1"/>
      <circle fill="#5D5D5D" cx="398.6" cy="282.8" r="4.1"/>
      <polygon fill="#5D5D5D" points="351.6,274 373.6,255.2 361.3,244.4 345.4,268.6 			"/>

        <rect x="352.1" y="267.9" transform="matrix(0.6621 -0.7494 0.7494 0.6621 -88.0685 360.9041)" fill="#5D5D5D" width="8.2" height="20.5"/>

        <rect x="395.1" y="271" transform="matrix(0.6621 -0.7494 0.7494 0.6621 -69.1623 396.746)" fill="#5D5D5D" width="20.5" height="8.2"/>
      <polygon fill="#5D5D5D" points="414.9,264.3 409.4,270.5 385.2,254.5 396.1,242.2 			"/>
      <circle fill="#5D5D5D" cx="348.5" cy="271.3" r="8.2"/>
      <circle fill="#5D5D5D" cx="412.2" cy="267.4" r="8.2"/>
      <path fill="#5D5D5D" d="M398.4,233.5L398.4,233.5c-2-8.6-7.4-25.9-20.3-48.3l-23.3,5.6c-1.2,23.7,1.3,40.7,3.2,49.9
        c0.1,0.8,0.3,1.4,0.5,2.1c0,0,0-0.1,0-0.1h0c1,4,3.1,7.3,6.2,10c8.5,7.5,21.4,6.8,28.9-1.7C398.1,246,399.6,239.6,398.4,233.5z
         M386,244.3c-3.7,4.2-10.2,4.6-14.5,0.9c-4.2-3.7-4.6-10.2-0.9-14.5c3.7-4.2,10.2-4.6,14.5-0.9
        C389.4,233.6,389.8,240.1,386,244.3z"/>
      <circle fill="#5D5D5D" cx="378.4" cy="237.5" r="3.6"/>
    </g>
  </g>
  <g display="inline">
    <circle fill="#5D5D5D" cx="102.5" cy="147.1" r="20.4"/>
    <polygon fill="#5D5D5D" points="63.4,196.9 58.5,192.6 86.2,155.6 96.1,164.2 		"/>
  </g>
  <circle display="inline" fill="#5D5D5D" cx="57.1" cy="194.4" r="8.7"/>
  <circle display="inline" fill="#5D5D5D" cx="-1.3" cy="111.2" r="4.1"/>
  <circle display="inline" fill="#5D5D5D" cx="46.7" cy="110.9" r="4.1"/>
  <polygon display="inline" fill="#5D5D5D" points="-11,124.4 14.6,138 5,151.3 -15.8,131.1 	"/>

    <rect x="-11.5" y="109.2" transform="matrix(0.8079 0.5893 -0.5893 0.8079 68.9873 27.2797)" display="inline" fill="#5D5D5D" width="8.2" height="20.5"/>

    <rect x="42.6" y="115" transform="matrix(0.5992 0.8006 -0.8006 0.5992 116.5876 5.43)" display="inline" fill="#5D5D5D" width="20.5" height="8.2"/>
  <polygon display="inline" fill="#5D5D5D" points="61.5,130.6 56.6,124.1 31.1,138 40.9,151.1 	"/>
  <circle display="inline" fill="#5D5D5D" cx="-13.4" cy="127.8" r="8.2"/>
  <circle display="inline" fill="#5D5D5D" cx="59" cy="127.4" r="8.2"/>
  <path display="inline" fill="#5D5D5D" d="M38.3,140.3l-0.2,0.2c-0.5-0.5-1-1-1.5-1.4c-8.5-7.5-21.4-6.7-28.9,1.8S1,162.2,9.4,169.7
    c0.1,0.1,0.3,0.2,0.4,0.3c6.6,7.2,18.5,18.5,36.9,30.7l18.3-15.5C54.7,161.6,43.9,147,38.3,140.3z M29.8,162
    c-4.2,3.8-10.7,3.5-14.5-0.7s-3.5-10.7,0.7-14.5c4.2-3.8,10.7-3.5,14.5,0.7C34.3,151.7,34,158.2,29.8,162z"/>
  <circle display="inline" fill="#5D5D5D" cx="22.9" cy="154.4" r="3.6"/>
  <g display="inline">
    <g>
      <ellipse fill="#5D5D5D" cx="204.1" cy="-29.5" rx="6.2" ry="4.4"/>
      <rect x="206.7" y="-52.4" fill="#5D5D5D" width="3.6" height="22.3"/>
    </g>
    <g>
      <ellipse fill="#5D5D5D" cx="221" cy="-33.1" rx="6.2" ry="4.4"/>
      <rect x="223.6" y="-56" fill="#5D5D5D" width="3.6" height="22.3"/>
    </g>
    <polygon fill="#5D5D5D" points="227.2,-51.6 206.7,-47.9 206.7,-54.3 227.2,-58 		"/>
  </g>
  <g display="inline">
    <g>
      <ellipse fill="#5D5D5D" cx="141.3" cy="-3.4" rx="6.2" ry="4.4"/>
      <rect x="143.9" y="-26.3" fill="#5D5D5D" width="3.6" height="22.3"/>
    </g>
    <g>
      <ellipse fill="#5D5D5D" cx="158.2" cy="-7" rx="6.2" ry="4.4"/>
      <rect x="160.8" y="-29.9" fill="#5D5D5D" width="3.6" height="22.3"/>
    </g>
    <polygon fill="#5D5D5D" points="164.4,-25.5 143.9,-21.9 143.9,-28.2 164.4,-31.9 		"/>
  </g>
  <g display="inline">
    <g>
      <ellipse fill="#5D5D5D" cx="266.1" cy="15.5" rx="6.2" ry="4.4"/>
      <rect x="268.7" y="-7.4" fill="#5D5D5D" width="3.6" height="22.3"/>
    </g>
    <g>
      <ellipse fill="#5D5D5D" cx="283" cy="11.9" rx="6.2" ry="4.4"/>
      <rect x="285.6" y="-11" fill="#5D5D5D" width="3.6" height="22.3"/>
    </g>
    <polygon fill="#5D5D5D" points="289.2,-6.7 268.7,-3 268.7,-9.3 289.2,-13 		"/>
  </g>
  <path display="inline" fill="#5D5D5D" d="M41.4,2.9H3.5c-3.4,0-6.2,2.8-6.2,6.2v93.6c0,3.4,2.8,6.2,6.2,6.2h37.9
    c3.4,0,6.2-2.8,6.2-6.2V9.1C47.6,5.7,44.8,2.9,41.4,2.9z M22.9,6.4c0.6,0,1.2,0.5,1.2,1.2s-0.5,1.2-1.2,1.2c-0.6,0-1.2-0.5-1.2-1.2
    S22.2,6.4,22.9,6.4z M18.6,11.8c0-0.2,0.2-0.4,0.4-0.4h7.8c0.2,0,0.4,0.2,0.4,0.4v1c0,0.2-0.2,0.4-0.4,0.4H19
    c-0.2,0-0.4-0.2-0.4-0.4V11.8z M22.5,105c-2.1,0-3.9-1.7-3.9-3.9c0-2.1,1.7-3.9,3.9-3.9c2.1,0,3.9,1.7,3.9,3.9
    C26.4,103.3,24.6,105,22.5,105z M44.1,93.8H0.8v-77h43.3V93.8z"/>
  <g display="inline">
    <path fill="#5D5D5D" d="M47.9-11.2c-4.8-9.1-14.3-15.2-25.2-15.2S2.1-20.2-2.6-11.2"/>
    <path fill="#5D5D5D" d="M59.1-20.6c-6.9-13.1-20.7-22-36.5-22s-29.6,8.9-36.5,22"/>
  </g>
</g>
<g id="O3_Labs_Bot_-_Room_Bot" display="none">
  <path display="inline" fill="#FFFFFF" d="M102.7,39.8v216h216v-216H102.7z M237.1,66.1c1.9,0,3.4,1.5,3.4,3.4
    c0,1.9-1.5,3.4-3.4,3.4c-1.9,0-3.4-1.5-3.4-3.4C233.7,67.6,235.2,66.1,237.1,66.1z M220.7,62.7c0-1.9,1.1-3.4,3-3.4s3,1.5,3,3.4
    v13.4c0,1.9-1.1,3.4-3,3.4s-3-1.5-3-3.4V62.7z M206.7,56c0-1.9,1.6-3.4,3.5-3.4c1.9,0,3.5,1.5,3.5,3.4v26.9c0,1.9-1.6,3.4-3.5,3.4
    c-1.9,0-3.5-1.5-3.5-3.4V56z M193.7,62.7c0-1.9,1.1-3.4,3-3.4c1.9,0,3,1.5,3,3.4v13.4c0,1.9-1.1,3.4-3,3.4c-1.9,0-3-1.5-3-3.4V62.7
    z M183.3,66.1c1.9,0,3.4,1.5,3.4,3.4c0,1.9-1.5,3.4-3.4,3.4s-3.4-1.5-3.4-3.4C179.9,67.6,181.4,66.1,183.3,66.1z M177.7,226.8
    h-55.4c0,0,0-0.2,0-0.3c0-15.3,12.4-27.7,27.7-27.7s27.7,12.5,27.7,27.7C177.8,226.6,177.7,226.8,177.7,226.8z M210.4,199.7
    c-28.6,0-51.9-23.3-51.9-51.9s23.3-51.9,51.9-51.9s51.9,23.3,51.9,51.9S239,199.7,210.4,199.7z M277.5,226.8c-6.2,0-11.9-3-12.1-11
    h6.9c0.1,3,2.4,4.8,5.1,4.8c3,0,5.1-2,5.1-5.4c0-3.1-1.9-5.4-5.3-5.4h-0.6v-6h0.6c3.3,0,4.8-2,4.8-4.6c0-3.2-2.1-4.9-4.6-4.9
    c-2.6,0-4.5,1.5-4.7,4.5h-6.9c0.2-7,5.2-10.7,11.6-10.7c6.7,0,11.5,4.5,11.5,10.9c0,4.1-1.9,6.4-4.4,7.8c2.7,1.4,4.9,4.1,4.9,8.7
    C289.5,223,284,226.8,277.5,226.8z"/>
  <path display="inline" fill="#FFFFFF" d="M149.3,208.6c-0.4-0.7-1.1-1.3-2-1s-1.1,1.1-1,2c0,0,0.8,7.5,0.9,7.9
    c0.5,1.6,2.3,2.5,3.9,2c1.6-0.5,2.5-2.3,2-3.9C153,215.2,149.3,208.6,149.3,208.6z"/>
  <g display="inline">
    <path fill="#FFFFFF" d="M217.1,19.1L217.1,19.1c-0.4,0-0.7-0.2-0.8-0.6l-6.1-15.2l-6.1,15.2c-0.1,0.3-0.5,0.6-0.8,0.6l0,0
      c-0.4,0-0.7-0.2-0.8-0.6l-6.1-15.2l-2.6,6.6c-0.2,0.5-0.7,0.7-1.2,0.5c-0.5-0.2-0.7-0.7-0.5-1.2l3.5-8.6c0.1-0.3,0.5-0.6,0.8-0.6
      c0.4,0,0.7,0.2,0.8,0.6l6.1,15.2l6.1-15.2c0.1-0.3,0.5-0.6,0.8-0.6l0,0c0.4,0,0.7,0.2,0.8,0.6l6.1,15.2l6.1-15.2
      c0.1-0.3,0.5-0.6,0.8-0.6l0,0c0.4,0,0.7,0.2,0.8,0.6l3.5,8.6c0.2,0.5,0,1-0.5,1.2c-0.5,0.2-1,0-1.2-0.5L224,3.3l-6.1,15.2
      C217.8,18.9,217.5,19.1,217.1,19.1z"/>
    <g>
      <g>
        <polygon fill="#FFFFFF" points="232.2,43.3 224,40.3 235.7,14.7 239.7,16.1 				"/>
        <circle fill="#FFFFFF" cx="239.8" cy="10.8" r="6.5"/>
      </g>
      <g>
        <polygon fill="#FFFFFF" points="188.2,43.3 196.3,40.3 184.7,14.7 180.6,16.1 				"/>
        <circle fill="#FFFFFF" cx="180.5" cy="10.8" r="6.5"/>
      </g>
    </g>
  </g>
  <g display="inline">
    <g>
      <circle fill="#FFFFFF" cx="181" cy="247.7" r="20.4"/>
      <polygon fill="#FFFFFF" points="177.4,286.1 171.1,285 171.4,263.4 184.3,265.7 			"/>
      <path fill="#FFFFFF" d="M148.4,336.3c0,0-2.8-17.8,10.4-46.9h30c13.2,29.1,10.4,46.9,10.4,46.9H148.4z"/>
      <circle fill="#FFFFFF" cx="173.8" cy="290.9" r="10.7"/>
      <path fill="#FFFFFF" d="M196.8,328c-7.1-2.7-15.6-4.3-24.7-4.3c-16.2,0-30.4,5-38.8,12.5h63.4V328z"/>
    </g>
    <g>
      <circle fill="#FFFFFF" cx="239.4" cy="247.7" r="20.4"/>
      <polygon fill="#FFFFFF" points="242.9,286.1 249.3,285 249,263.4 236.1,265.7 			"/>
      <path fill="#FFFFFF" d="M272,336.3c0,0,2.8-17.8-10.4-46.9h-30c-13.2,29.1-10.4,46.9-10.4,46.9H272z"/>
      <circle fill="#FFFFFF" cx="246.6" cy="290.9" r="10.7"/>
      <path fill="#FFFFFF" d="M223.5,328c7.1-2.7,15.6-4.3,24.7-4.3c16.2,0,30.4,5,38.8,12.5h-63.4V328z"/>
    </g>
  </g>
  <g display="inline">
    <g>
      <circle fill="#FFFFFF" cx="317.9" cy="147.1" r="20.4"/>
      <polygon fill="#FFFFFF" points="365.5,188.9 369.5,183.8 335.5,152.5 327.4,162.8 			"/>
    </g>
    <g>
      <circle fill="#FFFFFF" cx="366.1" cy="186.3" r="8.7"/>
      <circle fill="#FFFFFF" cx="363.9" cy="284.9" r="4.1"/>
      <circle fill="#FFFFFF" cx="398.6" cy="282.8" r="4.1"/>
      <polygon fill="#FFFFFF" points="351.6,274 373.6,255.2 361.3,244.4 345.4,268.6 			"/>

        <rect x="352.1" y="267.9" transform="matrix(0.6621 -0.7494 0.7494 0.6621 -88.0685 360.9041)" fill="#FFFFFF" width="8.2" height="20.5"/>

        <rect x="395.1" y="271" transform="matrix(0.6621 -0.7494 0.7494 0.6621 -69.1623 396.746)" fill="#FFFFFF" width="20.5" height="8.2"/>
      <polygon fill="#FFFFFF" points="414.9,264.3 409.4,270.5 385.2,254.5 396.1,242.2 			"/>
      <circle fill="#FFFFFF" cx="348.5" cy="271.3" r="8.2"/>
      <circle fill="#FFFFFF" cx="412.2" cy="267.4" r="8.2"/>
      <path fill="#FFFFFF" d="M398.4,233.5L398.4,233.5c-2-8.6-7.4-25.9-20.3-48.3l-23.3,5.6c-1.2,23.7,1.3,40.7,3.2,49.9
        c0.1,0.8,0.3,1.4,0.5,2.1c0,0,0-0.1,0-0.1h0c1,4,3.1,7.3,6.2,10c8.5,7.5,21.4,6.8,28.9-1.7C398.1,246,399.6,239.6,398.4,233.5z
         M386,244.3c-3.7,4.2-10.2,4.6-14.5,0.9c-4.2-3.7-4.6-10.2-0.9-14.5c3.7-4.2,10.2-4.6,14.5-0.9
        C389.4,233.6,389.8,240.1,386,244.3z"/>
      <circle fill="#FFFFFF" cx="378.4" cy="237.5" r="3.6"/>
    </g>
  </g>
  <path display="inline" fill="#FFFFFF" d="M210.4,116.7c-17.1,0-31,13.9-31,31c0,17.1,13.9,31,31,31c17.1,0,31-13.9,31-31
    C241.4,130.7,227.5,116.7,210.4,116.7z M226.2,162.2c-1.1,1.5-3.2,1.7-4.7,0.6l-13.3-10.2c-0.5-0.4-0.8-0.8-1.1-1.3
    c-0.3-0.5-0.5-1-0.5-1.6v-23.6c0-1.9,1.6-3.4,3.5-3.4c1.9,0,3.5,1.5,3.5,3.4v22.1l12,9.3C227.1,158.6,227.3,160.7,226.2,162.2z"/>
  <g display="inline">
    <path fill="#FFFFFF" d="M10.7,121.7c0,1.2,1,2.2,2.2,2.2h17.9c1.2,0,2.2-1,2.2-2.2c0-1.2-1-2.2-2.2-2.2H12.9
      C11.7,119.5,10.7,120.5,10.7,121.7z"/>
    <path fill="#FFFFFF" d="M6.9,104.7c0.1,1.2,1.2,2.1,2.4,1.9l25.4-2.9c1.2-0.1,2.1-1.2,1.9-2.4c-0.1-1.2-1.2-2.1-2.4-1.9l-25.4,2.9
      C7.7,102.5,6.8,103.5,6.9,104.7z"/>
    <path fill="#FFFFFF" d="M6.9,113.8c0.1,1.2,1.2,2.1,2.4,1.9l25.4-2.9c1.2-0.1,2.1-1.2,1.9-2.4c-0.1-1.2-1.2-2.1-2.4-1.9l-25.4,2.9
      C7.7,111.6,6.8,112.6,6.9,113.8z"/>
    <path fill="#FFFFFF" d="M21.8,4.7c-19.1,0-34.6,15.4-34.6,34.5c0,2.7,0.3,5.3,0.9,7.8c2,9.5,10.8,23.1,14.9,32.2
      c3.4,7.5,3.7,15.5,3.7,15.5h30.2c0,0,0.3-8.1,3.7-15.5c4.1-9.1,12.9-22.7,14.9-32.2c0.6-2.5,0.9-5.1,0.9-7.8
      C56.4,20.1,40.9,4.7,21.8,4.7z M36.9,48.3c-0.2,0.4-0.5,0.7-0.9,0.9c-0.9,0.3-1.9-0.1-2.2-1l-1.1-2.9l-3.9,9.7
      c-0.3,0.7-0.9,1.1-1.6,1.1c-0.7,0-1.3-0.4-1.6-1.1l-3.9-9.7l-3.9,9.7c-0.3,0.7-0.9,1.1-1.6,1.1c-0.7,0-1.3-0.4-1.6-1.1l-3.9-9.7
      l-1.1,2.9c-0.3,0.9-1.4,1.3-2.2,1c-0.9-0.3-1.3-1.3-1-2.2l2.7-6.8c0.3-0.7,0.9-1.1,1.6-1.1c0.7,0,1.3,0.4,1.6,1.1l3.9,9.7l3.9-9.7
      c0.3-0.7,0.9-1.1,1.6-1.1c0.7,0,1.3,0.4,1.6,1.1l3.9,9.7l3.9-9.7c0.3-0.7,0.9-1.1,1.6-1.1c0.7,0,1.3,0.4,1.6,1.1L37,47
      C37.1,47.5,37.1,47.9,36.9,48.3z"/>
  </g>
  <g display="inline">
    <path fill="#FFFFFF" d="M22.7-36.2c-1.3,0-2.3,1.1-2.3,2.3v18.8c0,1.3,1.1,2.3,2.3,2.3s2.3-1.1,2.3-2.3v-18.8
      C25.1-35.2,24-36.2,22.7-36.2z"/>
  </g>
  <g display="inline">
    <g>
      <path fill="#FFFFFF" d="M-17.1-25.6c-1.1,0.6-1.5,2.1-0.9,3.2l9.4,16.3c0.6,1.1,2.1,1.5,3.2,0.9s1.5-2.1,0.9-3.2l-9.4-16.3
        C-14.5-25.8-15.9-26.2-17.1-25.6z"/>
    </g>
    <g>
      <path fill="#FFFFFF" d="M-46.2,8.1c-0.6,1.1-0.3,2.6,0.9,3.2l16.3,9.4c1.1,0.6,2.6,0.3,3.2-0.9c0.6-1.1,0.3-2.6-0.9-3.2L-43,7.2
        C-44.1,6.6-45.5,6.9-46.2,8.1z"/>
    </g>
  </g>
  <g display="inline">
    <g>
      <path fill="#FFFFFF" d="M62.5-25.6c1.1,0.6,1.5,2.1,0.9,3.2L53.9-6.1c-0.6,1.1-2.1,1.5-3.2,0.9c-1.1-0.6-1.5-2.1-0.9-3.2
        l9.4-16.3C59.9-25.8,61.4-26.2,62.5-25.6z"/>
    </g>
    <g>
      <path fill="#FFFFFF" d="M91.6,8.1c0.6,1.1,0.3,2.6-0.9,3.2l-16.3,9.4c-1.1,0.6-2.6,0.3-3.2-0.9c-0.6-1.1-0.3-2.6,0.9-3.2
        l16.3-9.4C89.5,6.6,90.9,6.9,91.6,8.1z"/>
    </g>
  </g>
  <g display="inline">
    <circle fill="#FFFFFF" cx="102.5" cy="147.1" r="20.4"/>
    <polygon fill="#FFFFFF" points="63.4,196.9 58.5,192.6 86.2,155.6 96.1,164.2 		"/>
  </g>
  <circle display="inline" fill="#FFFFFF" cx="57.1" cy="194.4" r="8.7"/>
  <circle display="inline" fill="#FFFFFF" cx="2.8" cy="109.1" r="4.1"/>
  <circle display="inline" fill="#FFFFFF" cx="41.8" cy="108.6" r="4.1"/>
  <polygon display="inline" fill="#FFFFFF" points="-8,121.4 16.2,137.3 5.3,149.6 -13.5,127.6 	"/>

    <rect x="-8.1" y="106.5" transform="matrix(0.7494 0.6621 -0.6621 0.7494 76.3415 31.8961)" display="inline" fill="#FFFFFF" width="8.2" height="20.5"/>

    <rect x="38.5" y="111.9" transform="matrix(0.6841 0.7293 -0.7293 0.6841 100.0487 1.0726)" display="inline" fill="#FFFFFF" width="20.5" height="8.2"/>
  <polygon display="inline" fill="#FFFFFF" points="58.6,126.5 53,120.5 29.3,137.2 40.5,149.1 	"/>
  <circle display="inline" fill="#FFFFFF" cx="-10.8" cy="124.5" r="8.2"/>
  <circle display="inline" fill="#FFFFFF" cx="55.8" cy="123.5" r="8.2"/>
  <path display="inline" fill="#FFFFFF" d="M38.3,140.3l-0.2,0.2c-0.5-0.5-1-1-1.5-1.4c-8.5-7.5-21.4-6.7-28.9,1.8S1,162.2,9.4,169.7
    c0.1,0.1,0.3,0.2,0.4,0.3c6.6,7.2,18.5,18.5,36.9,30.7l18.3-15.5C54.7,161.6,43.9,147,38.3,140.3z M29.9,161.8
    c-4.1,3.9-10.6,3.7-14.5-0.5c-3.9-4.1-3.7-10.6,0.5-14.5c4.1-3.9,10.6-3.7,14.5,0.5C34.3,151.5,34.1,158,29.9,161.8z"/>
  <circle display="inline" fill="#FFFFFF" cx="22.9" cy="154.4" r="3.6"/>
</g>
</svg>
